<svg width="149" height="48" viewBox="0 0 149 48" fill="none" xmlns="http://www.w3.org/2000/svg">
<path d="M23.4237 5.23508C25.5117 6.99503 26.6751 9.29936 26.9137 12.1481H29.6655C29.5312 9.80646 28.8526 7.72585 27.6296 5.90625C26.4066 4.07173 24.7511 2.63246 22.663 1.58842C20.5749 0.529474 18.1662 0 15.4368 0C12.7223 0 10.2837 0.522017 8.12109 1.56605C5.97337 2.61008 4.27308 4.04936 3.02024 5.88388C1.7674 7.70348 1.14098 9.79155 1.14098 12.1481C1.14098 14.9521 2.08061 17.2937 3.95987 19.1729C5.85405 21.0522 8.59091 22.5362 12.1705 23.625L17.5174 25.2358C19.5531 25.8451 21.2802 26.5316 22.6987 27.2952V24.2921C21.3465 23.672 19.8804 23.1215 18.3004 22.6406L13.2891 21.1641C11.902 20.7464 10.6342 20.2617 9.4858 19.7099C8.33736 19.158 7.34553 18.5167 6.5103 17.7859C5.67507 17.0401 5.02628 16.1974 4.56392 15.2578C4.11648 14.3033 3.89276 13.2369 3.89276 12.0586C3.89276 10.2241 4.38494 8.59836 5.36932 7.18146C6.35369 5.76456 7.71094 4.64595 9.44105 3.82564C11.1712 3.00533 13.1474 2.59517 15.3697 2.59517C18.6658 2.59517 21.3505 3.47514 23.4237 5.23508Z" fill="black"/>
<path d="M29.8708 31.5117H26.9674C27.3492 32.4209 27.5401 33.4461 27.5401 34.5874C27.5401 36.5859 27.0107 38.3384 25.9517 39.8448C24.8928 41.3512 23.4237 42.5295 21.5444 43.3796C19.6651 44.2148 17.495 44.6325 15.0341 44.6325C12.7521 44.6325 10.7237 44.2596 8.94886 43.5138C7.17401 42.7681 5.74964 41.7092 4.67578 40.337C3.61683 38.9499 3.01278 37.3093 2.86364 35.4151H0C0.164062 37.7418 0.879971 39.8001 2.14773 41.5898C3.41548 43.3647 5.13814 44.7518 7.3157 45.7511C9.50817 46.7504 12.081 47.25 15.0341 47.25C18.1364 47.25 20.8285 46.7056 23.1104 45.6168C25.4073 44.5131 27.1747 43.0067 28.4126 41.0977C29.6655 39.1886 30.2919 37.0259 30.2919 34.6097C30.2919 33.4881 30.1516 32.4554 29.8708 31.5117Z" fill="black"/>
<path d="M36.3037 31.5117H39.1003V46.5117H36.3037V31.5117Z" fill="black"/>
<path d="M39.1003 18.5117H36.3037V0.693536H39.0555L51.8205 18.5117H48.5055L39.3687 5.77202H39.1003V18.5117Z" fill="black"/>
<path d="M57.829 31.5117L68.5868 46.5117H71.3162V31.5117H68.542V41.478H68.2736L61.1337 31.5117H57.829Z" fill="black"/>
<path d="M68.542 18.5117H71.3162V0.693536H68.542V18.5117Z" fill="black"/>
<path d="M79.4981 31.5117V46.5117H82.2946V31.5117H79.4981Z" fill="black"/>
<path d="M82.2946 18.5117H79.4981V0.693536H82.2946V18.5117Z" fill="black"/>
<path d="M87.7326 31.5117C87.9398 34.1145 88.5468 36.482 89.5537 38.6143C90.8215 41.299 92.5591 43.4094 94.7664 44.9457C96.9738 46.467 99.4944 47.2276 102.328 47.2276C105.162 47.2276 107.683 46.467 109.89 44.9457C112.097 43.4094 113.835 41.299 115.103 38.6143C116.11 36.482 116.717 34.1145 116.924 31.5117H114.204C114.017 33.5417 113.549 35.4245 112.798 37.1602C111.814 39.4719 110.42 41.3065 108.615 42.6637C106.825 44.021 104.73 44.6996 102.328 44.6996C99.927 44.6996 97.824 44.021 96.0193 42.6637C94.2295 41.3065 92.835 39.4719 91.8357 37.1602C91.0966 35.4245 90.635 33.5417 90.4508 31.5117H87.7326Z" fill="black"/>
<path d="M93.7491 18.5117H90.5007C91.6437 16.6462 93.0656 15.1216 94.7664 13.9379C96.9738 12.4016 99.4944 11.6335 102.328 11.6335C105.162 11.6335 107.683 12.4016 109.89 13.9379C111.591 15.1216 113.013 16.6462 114.156 18.5117H110.907C110.233 17.6465 109.469 16.89 108.615 16.2422C106.825 14.87 104.73 14.1839 102.328 14.1839C99.927 14.1839 97.8314 14.87 96.0417 16.2422C95.1874 16.89 94.4232 17.6465 93.7491 18.5117Z" fill="black"/>
<path d="M122.328 31.5117V46.5117H148.369V43.9165H125.125V31.5117H122.328Z" fill="black"/>
<path d="M125.699 24.8778H146.468V22.2827H125.699V24.8778Z" fill="black"/>
<path d="M125.125 18.5117H122.328V0.693536H147.833V3.28871H125.125V18.5117Z" fill="black"/>
<path d="M27.0073 21.5117H27.8511L30.7534 28.4805H30.8237L33.7261 21.5117H34.5698V29.5117H33.8823V23.0547H33.8198L31.1206 29.5117H30.4565L27.7573 23.0547H27.6948V29.5117H27.0073V21.5117Z" fill="black"/>
<path d="M39.4585 29.5117H38.6929L41.603 21.5117H42.3843L45.2944 29.5117H44.5288L42.021 22.4609H41.9663L39.4585 29.5117ZM40.0093 26.4453H43.978V27.1016H40.0093V26.4453Z" fill="black"/>
<path d="M49.4155 29.5117V21.5117H50.146V25.8203H50.2163L54.1225 21.5117H55.0835L51.6655 25.2109L55.0679 29.5117H54.1772L51.2124 25.7188L50.146 26.9141V29.5117H49.4155Z" fill="black"/>
<path d="M59.2124 29.5117V21.5117H63.853V22.168H59.9429V25.1797H63.6069V25.8359H59.9429V28.8555H63.9311V29.5117H59.2124Z" fill="black"/>
<path d="M68.4936 29.5117V21.5117H71.0757C71.6434 21.5117 72.1173 21.6146 72.4975 21.8203C72.8804 22.0234 73.1681 22.306 73.3608 22.668C73.5561 23.0273 73.6538 23.4401 73.6538 23.9062C73.6538 24.3724 73.5561 24.7839 73.3608 25.1406C73.1681 25.4974 72.8817 25.776 72.5014 25.9766C72.1212 26.1771 71.6499 26.2773 71.0874 26.2773H68.8882V25.6094H71.0679C71.4845 25.6094 71.8309 25.5404 72.1069 25.4023C72.3856 25.2643 72.5926 25.0677 72.728 24.8125C72.866 24.5573 72.935 24.2552 72.935 23.9062C72.935 23.5573 72.866 23.2526 72.728 22.9922C72.59 22.7292 72.3817 22.526 72.103 22.3828C71.827 22.2396 71.478 22.168 71.0561 22.168H69.2241V29.5117H68.4936ZM72.021 25.9023L73.9897 29.5117H73.146L71.1968 25.9023H72.021Z" fill="black"/>
<path d="M82.5268 23.5117C82.4826 23.0664 82.286 22.7122 81.937 22.4492C81.588 22.1862 81.1492 22.0547 80.6206 22.0547C80.2482 22.0547 79.9201 22.1185 79.6362 22.2461C79.355 22.3737 79.1336 22.5508 78.9722 22.7773C78.8133 23.0013 78.7339 23.2565 78.7339 23.543C78.7339 23.7539 78.7794 23.9388 78.8706 24.0977C78.9617 24.2565 79.0841 24.3932 79.2378 24.5078C79.394 24.6198 79.5659 24.7161 79.7534 24.7969C79.9435 24.8776 80.1349 24.9453 80.3276 25L81.1714 25.2422C81.4266 25.3125 81.6818 25.4023 81.937 25.5117C82.1922 25.6211 82.4253 25.7591 82.6362 25.9258C82.8498 26.0898 83.0203 26.2917 83.1479 26.5312C83.2781 26.7682 83.3432 27.0534 83.3432 27.3867C83.3432 27.8138 83.2326 28.1979 83.0112 28.5391C82.7899 28.8802 82.4722 29.151 82.0581 29.3516C81.644 29.5495 81.1479 29.6484 80.5698 29.6484C80.0255 29.6484 79.5529 29.5586 79.1518 29.3789C78.7508 29.1966 78.4357 28.9453 78.2065 28.625C77.9774 28.3047 77.8485 27.9336 77.8198 27.5117H78.5698C78.5958 27.8268 78.7 28.0938 78.8823 28.3125C79.0646 28.5312 79.3016 28.6979 79.5932 28.8125C79.8849 28.9245 80.2104 28.9805 80.5698 28.9805C80.9682 28.9805 81.3224 28.9141 81.6323 28.7812C81.9448 28.6458 82.1896 28.4583 82.3667 28.2188C82.5464 27.9766 82.6362 27.6953 82.6362 27.375C82.6362 27.1042 82.5659 26.8776 82.4253 26.6953C82.2847 26.5104 82.088 26.3555 81.8354 26.2305C81.5854 26.1055 81.2951 25.9948 80.9643 25.8984L80.0073 25.6172C79.3797 25.4297 78.8927 25.1706 78.5464 24.8398C78.2 24.5091 78.0268 24.0872 78.0268 23.5742C78.0268 23.1445 78.1414 22.7669 78.3706 22.4414C78.6024 22.1133 78.9149 21.8581 79.3081 21.6758C79.7039 21.4909 80.1479 21.3984 80.6401 21.3984C81.1375 21.3984 81.5776 21.4896 81.9604 21.6719C82.3432 21.8542 82.6466 22.1055 82.8706 22.4258C83.0972 22.7435 83.2182 23.1055 83.2339 23.5117H82.5268Z" fill="black"/>
<path d="M87.8511 29.5117V21.5117H90.4331C91.0008 21.5117 91.4748 21.6211 91.855 21.8398C92.2378 22.056 92.5255 22.3503 92.7182 22.7227C92.9136 23.0951 93.0112 23.5143 93.0112 23.9805C93.0112 24.4466 92.9149 24.8672 92.7222 25.2422C92.5294 25.6146 92.243 25.9102 91.8628 26.1289C91.4826 26.3451 91.0099 26.4531 90.4448 26.4531H88.4136V25.7969H90.4253C90.8446 25.7969 91.1922 25.7188 91.4682 25.5625C91.7443 25.4036 91.95 25.1875 92.0854 24.9141C92.2235 24.6406 92.2925 24.3294 92.2925 23.9805C92.2925 23.6315 92.2235 23.3203 92.0854 23.0469C91.95 22.7734 91.743 22.5586 91.4643 22.4023C91.1883 22.2461 90.838 22.168 90.4136 22.168H88.5815V29.5117H87.8511Z" fill="black"/>
<path d="M96.6714 29.5117H95.9057L98.8159 21.5117H99.5972L102.507 29.5117H101.742L99.2339 22.4609H99.1792L96.6714 29.5117ZM97.2222 26.4453H101.191V27.1016H97.2222V26.4453Z" fill="black"/>
<path d="M112.518 24.0117H111.784C111.729 23.7383 111.63 23.4857 111.487 23.2539C111.346 23.0195 111.169 22.8151 110.956 22.6406C110.742 22.4661 110.5 22.3307 110.229 22.2344C109.958 22.138 109.665 22.0898 109.35 22.0898C108.845 22.0898 108.384 22.2214 107.967 22.4844C107.553 22.7474 107.221 23.1341 106.971 23.6445C106.724 24.1523 106.6 24.7747 106.6 25.5117C106.6 26.2539 106.724 26.8789 106.971 27.3867C107.221 27.8945 107.553 28.2799 107.967 28.543C108.384 28.8034 108.845 28.9336 109.35 28.9336C109.665 28.9336 109.958 28.8854 110.229 28.7891C110.5 28.6927 110.742 28.5586 110.956 28.3867C111.169 28.2122 111.346 28.0078 111.487 27.7734C111.63 27.5391 111.729 27.2852 111.784 27.0117H112.518C112.453 27.3789 112.331 27.7214 112.151 28.0391C111.974 28.3542 111.747 28.6302 111.471 28.8672C111.198 29.1042 110.883 29.2891 110.526 29.4219C110.169 29.5547 109.777 29.6211 109.35 29.6211C108.678 29.6211 108.082 29.4531 107.561 29.1172C107.04 28.7786 106.631 28.3021 106.334 27.6875C106.04 27.0729 105.893 26.3477 105.893 25.5117C105.893 24.6758 106.04 23.9505 106.334 23.3359C106.631 22.7214 107.04 22.2461 107.561 21.9102C108.082 21.5716 108.678 21.4023 109.35 21.4023C109.777 21.4023 110.169 21.4688 110.526 21.6016C110.883 21.7318 111.198 21.9167 111.471 22.1562C111.747 22.3932 111.974 22.6693 112.151 22.9844C112.331 23.2995 112.453 23.6419 112.518 24.0117Z" fill="black"/>
<path d="M116.984 29.5117V21.5117H121.624V22.168H117.714V25.1797H121.378V25.8359H117.714V28.8555H121.703V29.5117H116.984Z" fill="black"/>
</svg>
