<svg width="124" height="48" viewBox="0 0 124 48" fill="none" xmlns="http://www.w3.org/2000/svg">
<path d="M23.4237 5.23508C25.5117 6.99503 26.6751 9.29936 26.9137 12.1481H29.6655C29.5312 9.80646 28.8526 7.72585 27.6296 5.90625C26.4066 4.07173 24.7511 2.63246 22.663 1.58842C20.5749 0.529474 18.1662 0 15.4368 0C12.7223 0 10.2837 0.522017 8.12109 1.56605C5.97337 2.61008 4.27308 4.04936 3.02024 5.88388C1.7674 7.70348 1.14098 9.79155 1.14098 12.1481C1.14098 14.9521 2.08061 17.2937 3.95987 19.1729C5.85405 21.0522 8.59091 22.5362 12.1705 23.625L13.307 23.9674V21.1694L13.2891 21.1641C11.902 20.7464 10.6342 20.2617 9.4858 19.7099C8.33736 19.158 7.34553 18.5167 6.5103 17.7859C5.67507 17.0401 5.02628 16.1974 4.56392 15.2578C4.11648 14.3033 3.89276 13.2369 3.89276 12.0586C3.89276 10.2241 4.38494 8.59836 5.36932 7.18146C6.35369 5.76456 7.71094 4.64595 9.44105 3.82564C11.1712 3.00533 13.1474 2.59517 15.3697 2.59517C18.6658 2.59517 21.3505 3.47514 23.4237 5.23508Z" fill="black"/>
<path d="M29.5064 30.5117H26.4405C27.1736 31.6475 27.5401 33.006 27.5401 34.5874C27.5401 36.5859 27.0107 38.3384 25.9517 39.8448C24.8928 41.3512 23.4237 42.5295 21.5444 43.3796C19.6651 44.2148 17.495 44.6325 15.0341 44.6325C12.7521 44.6325 10.7237 44.2596 8.94886 43.5138C7.17401 42.7681 5.74964 41.7092 4.67578 40.337C3.61683 38.9499 3.01278 37.3093 2.86364 35.4151H0C0.164062 37.7418 0.879971 39.8001 2.14773 41.5898C3.41548 43.3647 5.13814 44.7518 7.3157 45.7511C9.50817 46.7504 12.081 47.25 15.0341 47.25C18.1364 47.25 20.8285 46.7056 23.1104 45.6168C25.4073 44.5131 27.1747 43.0067 28.4126 41.0977C29.6655 39.1886 30.2919 37.0259 30.2919 34.6097C30.2919 33.0777 30.0301 31.7117 29.5064 30.5117Z" fill="black"/>
<path d="M41.3438 30.5117H44.1403V46.5117H41.3438V30.5117Z" fill="black"/>
<path d="M44.1403 17.5117H41.3438V0.693536H44.0955L56.1441 17.5117H52.8283L44.4087 5.77202H44.1403V17.5117Z" fill="black"/>
<path d="M62.1518 30.5117L73.6268 46.5117H76.3562V30.5117H73.582V41.478H73.3136L65.4573 30.5117H62.1518Z" fill="black"/>
<path d="M73.582 17.5117H76.3562V0.693536H73.582V17.5117Z" fill="black"/>
<path d="M89.5781 30.5117V31.0302C89.5632 34.1325 90.2791 36.9066 91.7259 39.3526C93.1875 41.7986 95.1935 43.7301 97.744 45.147C100.294 46.549 103.21 47.25 106.491 47.25C109.788 47.25 112.703 46.549 115.239 45.147C117.789 43.7301 119.788 41.8061 121.235 39.375C122.681 36.929 123.405 34.1474 123.405 31.0302V0.693536H120.608V30.8736C120.608 33.5135 120.004 35.8626 118.796 37.9208C117.603 39.979 115.947 41.6048 113.83 42.7979C111.712 43.9762 109.266 44.5653 106.491 44.5653C103.717 44.5653 101.271 43.9762 99.1534 42.7979C97.0355 41.6048 95.3725 39.979 94.1644 37.9208C92.9712 35.8626 92.3746 33.5135 92.3746 30.8736V30.5117H89.5781Z" fill="black"/>
<path d="M92.3746 17.5117H89.5781V0.693536H92.3746V17.5117Z" fill="black"/>
<path d="M15.6156 20.5117H16.4594L19.3617 27.4805H19.432L22.3344 20.5117H23.1781V28.5117H22.4906V22.0547H22.4281L19.7289 28.5117H19.0649L16.3656 22.0547H16.3031V28.5117H15.6156V20.5117Z" fill="black"/>
<path d="M28.0668 28.5117H27.3012L30.2113 20.5117H30.9926L33.9027 28.5117H33.1371L30.6293 21.4609H30.5746L28.0668 28.5117ZM28.6176 25.4453H32.5863V26.1016H28.6176V25.4453Z" fill="black"/>
<path d="M38.0238 28.5117V20.5117H38.7543V24.8203H38.8246L42.7309 20.5117H43.6918L40.2738 24.2109L43.6762 28.5117H42.7856L39.8207 24.7188L38.7543 25.9141V28.5117H38.0238Z" fill="black"/>
<path d="M47.8207 28.5117V20.5117H52.4613V21.168H48.5512V24.1797H52.2152V24.8359H48.5512V27.8555H52.5395V28.5117H47.8207Z" fill="black"/>
<path d="M57.102 28.5117V20.5117H59.684C60.2517 20.5117 60.7257 20.6146 61.1059 20.8203C61.4887 21.0234 61.7764 21.306 61.9691 21.668C62.1645 22.0273 62.2621 22.4401 62.2621 22.9062C62.2621 23.3724 62.1645 23.7839 61.9691 24.1406C61.7764 24.4974 61.49 24.776 61.1098 24.9766C60.7296 25.1771 60.2582 25.2773 59.6957 25.2773H57.4965V24.6094H59.6762C60.0928 24.6094 60.4392 24.5404 60.7152 24.4023C60.9939 24.2643 61.2009 24.0677 61.3363 23.8125C61.4744 23.5573 61.5434 23.2552 61.5434 22.9062C61.5434 22.5573 61.4744 22.2526 61.3363 21.9922C61.1983 21.7292 60.99 21.526 60.7113 21.3828C60.4353 21.2396 60.0863 21.168 59.6645 21.168H57.8324V28.5117H57.102ZM60.6293 24.9023L62.5981 28.5117H61.7543L59.8051 24.9023H60.6293Z" fill="black"/>
<path d="M71.1352 22.5117C71.0909 22.0664 70.8943 21.7122 70.5453 21.4492C70.1964 21.1862 69.7576 21.0547 69.2289 21.0547C68.8565 21.0547 68.5284 21.1185 68.2445 21.2461C67.9633 21.3737 67.7419 21.5508 67.5805 21.7773C67.4216 22.0013 67.3422 22.2565 67.3422 22.543C67.3422 22.7539 67.3878 22.9388 67.4789 23.0977C67.5701 23.2565 67.6925 23.3932 67.8461 23.5078C68.0023 23.6198 68.1742 23.7161 68.3617 23.7969C68.5518 23.8776 68.7432 23.9453 68.9359 24L69.7797 24.2422C70.0349 24.3125 70.2901 24.4023 70.5453 24.5117C70.8005 24.6211 71.0336 24.7591 71.2445 24.9258C71.4581 25.0898 71.6287 25.2917 71.7563 25.5312C71.8865 25.7682 71.9516 26.0534 71.9516 26.3867C71.9516 26.8138 71.8409 27.1979 71.6195 27.5391C71.3982 27.8802 71.0805 28.151 70.6664 28.3516C70.2523 28.5495 69.7563 28.6484 69.1781 28.6484C68.6339 28.6484 68.1612 28.5586 67.7602 28.3789C67.3591 28.1966 67.044 27.9453 66.8148 27.625C66.5857 27.3047 66.4568 26.9336 66.4281 26.5117H67.1781C67.2042 26.8268 67.3083 27.0937 67.4906 27.3125C67.6729 27.5313 67.9099 27.6979 68.2016 27.8125C68.4932 27.9245 68.8188 27.9805 69.1781 27.9805C69.5766 27.9805 69.9307 27.9141 70.2406 27.7812C70.5531 27.6458 70.7979 27.4583 70.975 27.2188C71.1547 26.9766 71.2445 26.6953 71.2445 26.375C71.2445 26.1042 71.1742 25.8776 71.0336 25.6953C70.893 25.5104 70.6964 25.3555 70.4438 25.2305C70.1938 25.1055 69.9034 24.9948 69.5727 24.8984L68.6156 24.6172C67.988 24.4297 67.501 24.1706 67.1547 23.8398C66.8083 23.5091 66.6352 23.0872 66.6352 22.5742C66.6352 22.1445 66.7497 21.7669 66.9789 21.4414C67.2107 21.1133 67.5232 20.8581 67.9164 20.6758C68.3122 20.4909 68.7563 20.3984 69.2484 20.3984C69.7458 20.3984 70.1859 20.4896 70.5688 20.6719C70.9516 20.8542 71.255 21.1055 71.4789 21.4258C71.7055 21.7435 71.8266 22.1055 71.8422 22.5117H71.1352Z" fill="black"/>
<path d="M76.4594 28.5117V20.5117H79.0414C79.6091 20.5117 80.0831 20.6211 80.4633 20.8398C80.8461 21.056 81.1339 21.3503 81.3266 21.7227C81.5219 22.0951 81.6195 22.5143 81.6195 22.9805C81.6195 23.4466 81.5232 23.8672 81.3305 24.2422C81.1378 24.6146 80.8513 24.9102 80.4711 25.1289C80.0909 25.3451 79.6182 25.4531 79.0531 25.4531H77.0219V24.7969H79.0336C79.4529 24.7969 79.8005 24.7187 80.0766 24.5625C80.3526 24.4036 80.5583 24.1875 80.6938 23.9141C80.8318 23.6406 80.9008 23.3294 80.9008 22.9805C80.9008 22.6315 80.8318 22.3203 80.6938 22.0469C80.5583 21.7734 80.3513 21.5586 80.0727 21.4023C79.7966 21.2461 79.4464 21.168 79.0219 21.168H77.1898V28.5117H76.4594Z" fill="black"/>
<path d="M85.2797 28.5117H84.5141L87.4242 20.5117H88.2055L91.1156 28.5117H90.35L87.8422 21.4609H87.7875L85.2797 28.5117ZM85.8305 25.4453H89.7992V26.1016H85.8305V25.4453Z" fill="black"/>
<path d="M101.126 23.0117H100.392C100.337 22.7383 100.238 22.4857 100.095 22.2539C99.9545 22.0195 99.7774 21.8151 99.5639 21.6406C99.3503 21.4661 99.1081 21.3307 98.8373 21.2344C98.5665 21.138 98.2735 21.0898 97.9584 21.0898C97.4532 21.0898 96.9923 21.2214 96.5756 21.4844C96.1615 21.7474 95.8295 22.1341 95.5795 22.6445C95.3321 23.1523 95.2084 23.7747 95.2084 24.5117C95.2084 25.2539 95.3321 25.8789 95.5795 26.3867C95.8295 26.8945 96.1615 27.2799 96.5756 27.543C96.9923 27.8034 97.4532 27.9336 97.9584 27.9336C98.2735 27.9336 98.5665 27.8854 98.8373 27.7891C99.1081 27.6927 99.3503 27.5586 99.5639 27.3867C99.7774 27.2122 99.9545 27.0078 100.095 26.7734C100.238 26.5391 100.337 26.2852 100.392 26.0117H101.126C101.061 26.3789 100.939 26.7214 100.759 27.0391C100.582 27.3542 100.356 27.6302 100.079 27.8672C99.8061 28.1042 99.491 28.2891 99.1342 28.4219C98.7774 28.5547 98.3855 28.6211 97.9584 28.6211C97.2865 28.6211 96.6902 28.4531 96.1693 28.1172C95.6485 27.7786 95.2397 27.3021 94.9428 26.6875C94.6485 26.0729 94.5014 25.3477 94.5014 24.5117C94.5014 23.6758 94.6485 22.9505 94.9428 22.3359C95.2397 21.7214 95.6485 21.2461 96.1693 20.9102C96.6902 20.5716 97.2865 20.4023 97.9584 20.4023C98.3855 20.4023 98.7774 20.4687 99.1342 20.6016C99.491 20.7318 99.8061 20.9167 100.079 21.1562C100.356 21.3932 100.582 21.6693 100.759 21.9844C100.939 22.2995 101.061 22.6419 101.126 23.0117Z" fill="black"/>
<path d="M105.592 28.5117V20.5117H110.233V21.168H106.323V24.1797H109.987V24.8359H106.323V27.8555H110.311V28.5117H105.592Z" fill="black"/>
</svg>
