<svg width="149" height="51" viewBox="0 0 149 51" fill="none" xmlns="http://www.w3.org/2000/svg">
<path fill-rule="evenodd" clip-rule="evenodd" d="M10.6203 14.6785C10.3814 15.2518 10.0701 15.7816 9.61554 16.1935C7.5957 18.0286 3.69993 17.4765 0.359691 17.4475L0.317117 13.4071H0.79483C0.79483 15.8136 5.1254 17.5693 7.50926 15.2973C9.2026 13.6836 8.09258 11.5421 6.02866 10.3365L2.58361 8.32345C1.67456 7.8062 1.01695 7.20853 0.610778 6.53042C0.205378 5.85745 -0.00582422 5.08545 0.000559354 4.2999C-0.0095474 3.6856 0.117421 3.07674 0.372229 2.51765C1.31703 0.508578 3.39529 0.0195842 5.55479 0H5.83425C7.25338 0.0126209 8.68712 0.206895 9.83912 0.289061V3.77547H9.36028C9.29837 1.81706 6.87587 0.83437 4.98722 1.24529C3.18939 1.63697 2.09763 3.5551 3.18174 5.17259C3.45251 5.57574 3.89896 5.96346 4.52109 6.3357C5.20676 6.73987 5.88081 7.13207 6.54328 7.51232C7.20498 7.89229 7.71882 8.19522 8.08481 8.4211C9.00769 8.97704 9.91068 9.73021 10.43 10.6999C10.7625 11.3049 10.9525 11.9777 10.9855 12.6672C11.0185 13.3567 10.8936 14.0446 10.6203 14.6785Z" fill="#006DB4"/>
<path fill-rule="evenodd" clip-rule="evenodd" d="M29.2887 16.9689H23.6922V16.6053C23.8727 16.5717 24.0491 16.5188 24.2184 16.4477C24.398 16.3714 24.5607 16.2604 24.6972 16.1209C24.8513 15.9571 24.9692 15.7628 25.0434 15.5505C25.1402 15.2576 25.1848 14.95 25.1749 14.6417V9.42948C25.1749 9.18682 25.2223 9.00508 25.319 8.88416C25.3563 8.82934 25.406 8.7842 25.4642 8.75242C25.5224 8.72063 25.5873 8.70313 25.6536 8.70138V8.58058H17.2815V8.70138C17.3491 8.70388 17.415 8.72292 17.4735 8.75679C17.532 8.79069 17.5812 8.83839 17.617 8.89574C17.7204 9.05382 17.7703 9.24092 17.7592 9.42948V14.6658C17.7507 14.9663 17.7956 15.2658 17.8917 15.5505C17.9658 15.7631 18.0841 15.9575 18.2389 16.121C18.3748 16.2606 18.5372 16.3717 18.7166 16.4478C18.8862 16.5188 19.0629 16.5716 19.2437 16.6054V16.9689H13.6456V16.6054C13.8264 16.5718 14.0031 16.5189 14.1727 16.4478C14.3524 16.3718 14.5152 16.2607 14.6515 16.121C14.8056 15.957 14.9239 15.7627 14.9987 15.5505C15.0951 15.2576 15.1396 14.95 15.1303 14.6417V2.32616C15.1379 2.02178 15.0934 1.71834 14.9987 1.42895C14.9257 1.21246 14.8073 1.01403 14.6515 0.846904C14.5155 0.706907 14.3527 0.595774 14.1727 0.520154C14.0031 0.448677 13.8264 0.395513 13.6456 0.361566V0H19.2437V0.361566C19.0629 0.395647 18.8862 0.448805 18.7166 0.520154C18.537 0.595816 18.3745 0.706952 18.2389 0.846904C18.0824 1.01353 17.964 1.21211 17.8917 1.42895C17.7963 1.71818 17.7516 2.02172 17.7596 2.32616V6.39846C17.7596 6.88384 17.6003 7.12654 17.2818 7.12654V7.24736H25.6535V7.12654C25.5872 7.12481 25.5223 7.10731 25.4641 7.07553C25.406 7.04374 25.3562 6.99857 25.3189 6.94378C25.2222 6.82391 25.1748 6.64112 25.1748 6.39846V2.32616C25.1829 2.02175 25.1384 1.71823 25.0433 1.42895C24.971 1.21236 24.8529 1.01385 24.6971 0.846904C24.5609 0.707115 24.3981 0.596012 24.2183 0.520154C24.0491 0.448683 23.8727 0.395519 23.6922 0.361566V0H29.2886V0.361566C29.1081 0.395787 28.9318 0.448944 28.7625 0.520154C28.5825 0.595768 28.4197 0.706901 28.2836 0.846904C28.1278 1.01385 28.0097 1.21235 27.9374 1.42895C27.8425 1.71827 27.7982 2.02179 27.8065 2.32616V14.6658C27.7978 14.9662 27.8424 15.2657 27.9381 15.5505C28.0122 15.7629 28.1302 15.9572 28.2843 16.121C28.4206 16.2607 28.5834 16.3718 28.7632 16.4478C28.9325 16.5186 29.1089 16.5715 29.2893 16.6054L29.2887 16.9689Z" fill="#006DB4"/>
<path fill-rule="evenodd" clip-rule="evenodd" d="M37.6724 16.9688H32.0755V16.6053C32.2562 16.5715 32.4324 16.5187 32.6018 16.4477C32.7813 16.3714 32.9441 16.2604 33.0804 16.1209C33.2346 15.9571 33.3525 15.7628 33.4269 15.5505C33.524 15.2577 33.5689 14.95 33.5594 14.6416V2.32616C33.5671 2.02169 33.5222 1.71816 33.4269 1.42895C33.3546 1.21235 33.2364 1.01385 33.0804 0.846904C32.9444 0.707115 32.7816 0.596012 32.6018 0.520154C32.4324 0.44881 32.2562 0.39565 32.0755 0.361566V0H37.6721V0.361566C37.4917 0.395787 37.3152 0.448944 37.1461 0.520154C36.9663 0.595816 36.8037 0.706955 36.6683 0.846904C36.5117 1.01354 36.3933 1.21212 36.3209 1.42895C36.226 1.71823 36.1813 2.02175 36.1894 2.32616V14.6658C36.1807 14.9662 36.2254 15.2657 36.3209 15.5505C36.395 15.7631 36.5135 15.9575 36.6683 16.121C36.804 16.2606 36.9666 16.3717 37.1461 16.4478C37.3152 16.5186 37.4917 16.5715 37.6721 16.6054L37.6724 16.9688Z" fill="#006DB4"/>
<path fill-rule="evenodd" clip-rule="evenodd" d="M56.1975 0.362611C55.5911 0.524044 55.1491 0.762186 54.8707 1.07704C54.5728 1.42403 54.3415 1.82289 54.1879 2.25366L48.8062 16.97H47.2994L41.7029 1.98688C41.5278 1.51796 41.2927 1.16249 40.9968 0.920456C40.6616 0.657217 40.2749 0.467181 39.8615 0.362611V0H45.2419V0.362611C44.8909 0.379062 44.6239 0.491171 44.4412 0.702071C44.2581 0.912971 44.2533 1.2358 44.4284 1.67179L48.8789 13.8174L48.9503 13.5757C48.889 13.4176 48.8646 13.2476 48.8789 13.0787C48.9033 12.8913 48.9512 12.7077 49.0218 12.5324L52.9445 1.74421C53.104 1.34104 53.1002 1.03004 52.9329 0.811222C52.7656 0.592399 52.4905 0.442861 52.108 0.362611V0H56.1978L56.1975 0.362611Z" fill="#006DB4"/>
<path fill-rule="evenodd" clip-rule="evenodd" d="M90.9154 9.86565L90.8672 9.74482C90.7148 9.72054 90.5686 9.66697 90.4368 9.58712C90.3254 9.51365 90.2308 9.37247 90.1504 9.16269L87.7104 2.90821L87.6386 3.07742C87.7818 3.3694 87.7738 3.70911 87.6145 4.09649L85.6293 9.16227C85.5868 9.30175 85.5094 9.42817 85.4046 9.52992C85.3001 9.63164 85.1715 9.70536 85.0307 9.74432L84.9834 9.86511L90.9154 9.86565ZM111.55 8.48404C111.561 7.50574 111.382 6.53464 111.024 5.62413C110.691 4.77946 110.195 4.00867 109.564 3.35595C108.933 2.71171 108.176 2.20453 107.34 1.86607C106.444 1.50301 105.485 1.32158 104.518 1.33233H102.581V1.45315C102.647 1.45489 102.712 1.47238 102.77 1.50417C102.828 1.53595 102.878 1.58112 102.915 1.63593C103.012 1.75674 103.059 1.93857 103.059 2.18124V14.7868C103.059 15.0294 103.012 15.2112 102.915 15.3321C102.878 15.3868 102.828 15.4317 102.77 15.4634C102.712 15.495 102.647 15.5122 102.581 15.5138V15.6357H104.519C105.485 15.6459 106.444 15.4645 107.34 15.1019C108.177 14.7638 108.934 14.2562 109.565 13.6111C110.195 12.9589 110.691 12.1888 111.024 11.3448C111.382 10.4339 111.561 9.46261 111.55 8.48404ZM125.882 9.86565L125.835 9.74482C125.682 9.72087 125.536 9.6673 125.404 9.58712C125.292 9.5146 125.196 9.37247 125.117 9.16269L122.677 2.9083L122.605 3.07751C122.749 3.36949 122.74 3.7092 122.581 4.09658L120.596 9.16236C120.553 9.30164 120.476 9.42791 120.372 9.52963C120.267 9.63132 120.139 9.70515 119.998 9.74441L119.951 9.8652L125.882 9.86565ZM79.6571 0H75.3513V0.362611C75.9261 0.459283 76.3208 0.669401 76.536 0.99296C76.7557 1.33205 76.8682 1.72933 76.859 2.1332V10.5205C76.853 10.745 76.8769 10.9694 76.9304 11.1875C76.9813 11.3628 77.0709 11.5244 77.1927 11.6603V11.9263L67.6264 0H64.0144V0.362611C64.313 0.417518 64.5925 0.546885 64.8276 0.738715C65.0845 0.96176 65.3099 1.21834 65.498 1.50154V14.8357C65.5069 15.2243 65.4027 15.6072 65.1982 15.9379C64.9991 16.254 64.6044 16.4764 64.0144 16.6049V16.9695H68.3196V16.6049C67.7463 16.5083 67.3513 16.2982 67.1352 15.9746C66.9158 15.6358 66.8036 15.239 66.8131 14.8357V4.16899C66.8214 3.92031 66.7973 3.67161 66.7414 3.42916C66.6952 3.26408 66.6137 3.11099 66.5026 2.98052V2.73787L78.1741 17.3323V2.13285C78.1652 1.74403 78.2691 1.36094 78.473 1.02969C78.6721 0.714487 79.0668 0.492096 79.6568 0.362524L79.6571 0ZM89.3133 0H85.7252V0.362611C86.1083 0.427368 86.4024 0.548268 86.6102 0.726093C86.818 0.903918 87.0085 1.19498 87.1847 1.5992L81.9942 14.8357C81.8322 15.2672 81.5747 15.6566 81.2407 15.9746C80.8942 16.2914 80.4686 16.5091 80.0087 16.6049V16.9695H84.0984V16.6049C83.8626 16.5579 83.6388 16.4631 83.4408 16.3264C83.3423 16.2576 83.2628 16.1645 83.2105 16.0561C83.1581 15.9478 83.1345 15.8278 83.142 15.7077C83.142 15.6303 83.1503 15.5532 83.1664 15.4776C83.184 15.3991 83.2078 15.3221 83.2378 15.2475L84.4815 12.0714C84.6092 11.7639 84.5535 11.5538 84.3142 11.4411L84.3374 11.3203H91.514L91.5605 11.4653C91.2741 11.5794 91.194 11.7805 91.3214 12.0715L92.6137 15.3201C92.6839 15.4725 92.7244 15.6368 92.7333 15.8044C92.7333 16.112 92.6336 16.3144 92.4336 16.4116C92.2261 16.5106 92.004 16.5759 91.776 16.605V16.9696H97.1588V16.605C96.7516 16.4895 96.3727 16.2914 96.0458 16.023C95.741 15.7423 95.5073 15.3933 95.3639 15.0046L89.3133 0ZM105.911 0H98.9455V0.362611C99.1244 0.396031 99.3003 0.44454 99.4715 0.507622C99.6524 0.576162 99.8162 0.68415 99.9501 0.823754C100.106 0.99016 100.224 1.18841 100.296 1.40484C100.392 1.69414 100.436 1.99765 100.428 2.30205V14.6417C100.438 14.9504 100.393 15.2583 100.296 15.5516C100.222 15.7635 100.104 15.9575 99.9501 16.121C99.8144 16.2612 99.6515 16.3724 99.4715 16.4478C99.3018 16.5183 99.1256 16.5712 98.9455 16.6054V16.9699H105.786C106.953 16.9776 108.11 16.7593 109.194 16.3269C110.223 15.9189 111.164 15.3181 111.968 14.5567C112.763 13.7976 113.398 12.8869 113.835 11.8786C114.285 10.8032 114.516 9.64938 114.516 8.48395C114.516 7.31852 114.285 6.16469 113.835 5.08938C113.398 4.08081 112.763 3.17015 111.968 2.41121C111.164 1.65044 110.223 1.04995 109.194 0.641926C108.15 0.223378 107.036 0.00559235 105.911 0ZM124.281 0H120.692V0.362611C121.075 0.427368 121.37 0.54853 121.577 0.726093C121.784 0.904005 121.976 1.19504 122.151 1.5992L116.961 14.8357C116.799 15.2672 116.542 15.6566 116.208 15.9746C115.861 16.2918 115.435 16.5095 114.974 16.6049V16.9695H119.066V16.6049C118.83 16.5577 118.606 16.4629 118.408 16.3264C118.309 16.2574 118.23 16.1643 118.178 16.056C118.125 15.9477 118.102 15.8277 118.109 15.7077C118.109 15.6303 118.117 15.5532 118.133 15.4776C118.15 15.3989 118.175 15.3219 118.206 15.2475L119.448 12.0714C119.576 11.7639 119.52 11.5538 119.281 11.4411L119.304 11.3203H126.481L126.528 11.4653C126.242 11.5794 126.161 11.7805 126.289 12.0715L127.58 15.3201C127.651 15.4725 127.691 15.6368 127.7 15.8044C127.7 16.1119 127.6 16.314 127.401 16.4116C127.193 16.51 126.972 16.5753 126.744 16.605V16.9696H132.126V16.605C131.719 16.4897 131.34 16.2916 131.014 16.023C130.708 15.743 130.474 15.3938 130.332 15.0046L124.281 0ZM142.263 0H133.912V0.362611C134.075 0.383035 134.235 0.419628 134.39 0.471848C134.575 0.53396 134.743 0.637861 134.881 0.775447C135.047 0.94324 135.174 1.14606 135.251 1.36907C135.356 1.67706 135.404 2.00137 135.394 2.32651V14.6417C135.404 14.9503 135.36 15.2582 135.264 15.5516C135.189 15.7637 135.071 15.9578 134.916 16.121C134.78 16.2608 134.617 16.3719 134.438 16.4478C134.268 16.5183 134.092 16.5712 133.912 16.6054V16.9699H139.509V16.6054C138.919 16.5087 138.524 16.2744 138.325 15.9025C138.121 15.514 138.018 15.0805 138.025 14.6417V10.0112C138.025 9.76851 137.977 9.58641 137.882 9.4649C137.844 9.41035 137.794 9.36544 137.736 9.33387C137.678 9.30229 137.613 9.28491 137.547 9.28315V9.16227H139.676C140.089 9.1609 140.501 9.19748 140.907 9.27149C141.294 9.34217 141.663 9.48624 141.996 9.6959C142.356 9.92993 142.669 10.2303 142.917 10.581C143.24 11.0469 143.493 11.5572 143.67 12.0961C143.83 12.565 144.009 13.0984 144.208 13.6962C144.408 14.2941 144.611 14.8922 144.818 15.4906C145.233 16.6857 146.078 17.2834 147.354 17.2837C147.866 17.2976 148.374 17.1901 148.837 16.9699V16.6054C148.708 16.6287 148.575 16.6223 148.448 16.5866C148.322 16.5509 148.205 16.4869 148.108 16.3995C147.877 16.2138 147.681 15.9103 147.522 15.4906C147.473 15.3292 147.395 15.0943 147.282 14.7868C147.172 14.4803 147.055 14.1447 146.936 13.7813C146.817 13.4167 146.688 13.0493 146.554 12.6781C146.417 12.3067 146.301 11.9751 146.206 11.6832C145.951 10.9397 145.608 10.3541 145.177 9.92648C144.761 9.50662 144.253 9.18751 143.695 8.9935C144.224 8.8603 144.726 8.63442 145.177 8.32631C146.042 7.72322 146.669 6.8376 146.951 5.82198C147.232 4.80633 147.151 3.72428 146.721 2.76215C146.466 2.20798 146.104 1.70956 145.656 1.29543C145.2 0.87789 144.668 0.552726 144.088 0.337978C143.505 0.119427 142.887 0.00503188 142.263 0ZM144.149 4.62917C144.156 4.16194 144.062 3.69872 143.874 3.27083C143.695 2.87374 143.434 2.51893 143.108 2.22955C142.773 1.93386 142.383 1.70717 141.96 1.56247C141.502 1.40572 141.021 1.3279 140.537 1.33233H137.571V1.45315C137.636 1.45432 137.699 1.47165 137.756 1.50357C137.812 1.53548 137.86 1.58097 137.895 1.63593C137.982 1.7568 138.026 1.93857 138.026 2.18124V7.10243C138.026 7.34417 137.978 7.52595 137.882 7.64775C137.845 7.7023 137.795 7.74721 137.736 7.77879C137.678 7.81036 137.613 7.82774 137.547 7.8295V7.95029H140.537C141.012 7.95333 141.484 7.87985 141.936 7.73272C142.358 7.59686 142.748 7.37828 143.084 7.08972C143.415 6.80192 143.68 6.44652 143.862 6.0475C144.06 5.60152 144.158 5.11729 144.149 4.62917Z" fill="#006DB4"/>
<path fill-rule="evenodd" clip-rule="evenodd" d="M58.6259 48.8486C58.6259 47.6749 57.7245 46.7806 56.4207 46.7806H54.8737V50.9292H56.421C57.7245 50.9292 58.6259 50.0224 58.6259 48.8486ZM57.8609 48.8611C57.8609 49.6781 57.2923 50.264 56.4207 50.264H55.6024V47.4449H56.4207C57.2923 47.4449 57.8609 48.0433 57.8609 48.8611ZM63.2675 46.7809H60.1917V50.9295H63.2976V50.2768H60.921V49.1626H63.0011V48.5109H60.9207V47.4318H63.2678L63.2675 46.7809ZM64.8446 50.9295H67.7555V50.264H65.5742V46.7806H64.8452L64.8446 50.9295ZM71.9054 49.1805V50.9295H72.6338V46.7806H71.9054V48.5043H69.925V46.7806H69.196V50.9292H69.925V49.1802L71.9054 49.1805ZM74.4237 50.9295H75.1539V46.7806H74.4237V50.9295ZM82.9196 49.6486L80.6972 46.7809H80.0203V50.9295H80.7377V47.9776L83.0259 50.9292H83.6361V46.7806H82.9196V49.6486ZM88.9945 50.2643L88.5275 49.7917C88.1718 50.1233 87.8458 50.3301 87.3362 50.3301C86.542 50.3301 85.9657 49.667 85.9657 48.8489C85.9657 48.0311 86.542 47.3794 87.3362 47.3794C87.8101 47.3794 88.1658 47.5871 88.4977 47.8945L88.9657 47.355C88.5692 46.9762 88.106 46.7092 87.3419 46.7092C86.0848 46.7092 85.2019 47.6752 85.2019 48.8614C85.2019 50.0575 86.1032 51 87.3121 51C88.0887 50.9997 88.5623 50.7161 88.9945 50.2643ZM93.9636 50.9295L92.8429 49.3581C93.4239 49.1974 93.832 48.7835 93.832 48.096C93.832 47.2839 93.2459 46.78 92.2916 46.78H90.4415V50.9289H91.1708V49.4819H92.085L93.1042 50.9292L93.9636 50.9295ZM93.0923 48.1374C93.0923 48.5638 92.7595 48.8373 92.2383 48.8373H91.1708V47.4449H92.2329C92.7711 47.4449 93.0923 47.6809 93.0923 48.1374Z" fill="#58595B"/>
<path fill-rule="evenodd" clip-rule="evenodd" d="M31.1301 37.422H6.43585C9.86219 37.1833 21.1789 36.867 30.9512 36.9616C31.0101 37.0819 31.0703 37.3021 31.1301 37.422Z" fill="#006DB4"/>
<path fill-rule="evenodd" clip-rule="evenodd" d="M31.1301 37.6395H6.43585C9.86219 37.8782 21.1789 38.1943 30.9512 38.0996C31.0101 37.98 31.0703 37.7592 31.1301 37.6395Z" fill="#006DB4"/>
<path fill-rule="evenodd" clip-rule="evenodd" d="M31.0194 36.7774L31.4409 37.5259L31.008 38.2767L31.9835 37.4976L31.0194 36.7774Z" fill="#006DB4"/>
<path fill-rule="evenodd" clip-rule="evenodd" d="M40.3211 34.2347H39.5831V38.0374C39.5831 39.4674 38.8163 40.1953 37.6113 40.1953C36.359 40.1953 35.6125 39.4016 35.6125 37.991V34.2347H34.8736V38.0374C34.8736 39.887 35.9759 40.878 37.5929 40.878C39.2283 40.878 40.3211 39.887 40.3211 37.9812V34.2347ZM49.4531 39.4769L45.3324 34.2347H44.6409V40.7745H45.3604V35.4126L49.5835 40.7745H50.1726V34.2347H49.4531V39.4769ZM54.6594 40.7745H55.3982V34.2347H54.6594V40.7745ZM62.4745 39.8686L60.1482 34.2347H59.326L62.1381 40.8209H62.793L65.6051 34.2347H64.8101L62.4745 39.8686ZM74.1957 34.2347H69.4669V40.7745H74.2421V40.1025H70.2045V37.8133H73.7751V37.1405H70.2045V34.9076H74.1957V34.2347ZM83.7108 40.7745L81.7012 38.1032C82.7285 37.9154 83.4766 37.2803 83.4766 36.1882C83.4766 35.0114 82.5511 34.2353 81.1121 34.2353H78.3V40.7748H79.038V38.2336H80.9074L82.8038 40.7745H83.7108ZM82.7282 36.2158C82.7282 37.0658 82.0281 37.5702 81.0464 37.5702H79.038V34.9174H81.0562C82.1123 34.9174 82.7282 35.4037 82.7282 36.2158ZM88.1989 35.8697C88.1989 35.2721 88.7403 34.804 89.5905 34.804C90.2635 34.804 90.8702 35.0198 91.4783 35.515L91.9076 34.9454C91.2444 34.4127 90.5624 34.1419 89.6098 34.1419C88.3662 34.1419 87.46 34.8882 87.46 35.9364C87.46 37.0193 88.1515 37.5056 89.6563 37.8324C91.0294 38.1214 91.3566 38.4678 91.3566 39.0835C91.3566 39.7466 90.777 40.2049 89.8992 40.2049C88.9928 40.2049 88.3382 39.8974 87.6565 39.2796L87.1981 39.8221C87.9833 40.523 88.8332 40.8682 89.8709 40.8682C91.1696 40.8682 92.1037 40.1391 92.1037 39.0091C92.1037 38.0005 91.4316 37.4678 89.9745 37.1506C88.5355 36.8423 88.1989 36.4962 88.1989 35.8697ZM96.2468 40.7745H96.9847V34.2347H96.2468V40.7745ZM103.949 34.9174H106.144V34.2347H101.005V34.9174H103.2V40.7745H103.949L103.949 34.9174ZM112.893 38.1776L115.613 34.2344H114.753L112.528 37.5053L110.325 34.2344H109.427L112.146 38.1871V40.7742H112.893L112.893 38.1776Z" fill="#006DB4"/>
<path fill-rule="evenodd" clip-rule="evenodd" d="M117.706 37.422H142.402C138.975 37.1833 127.66 36.867 117.887 36.9616C117.826 37.0819 117.767 37.3021 117.706 37.422Z" fill="#006DB4"/>
<path fill-rule="evenodd" clip-rule="evenodd" d="M117.706 37.6395H142.402C138.975 37.8782 127.66 38.1943 117.887 38.0996C117.826 37.98 117.767 37.7592 117.706 37.6395Z" fill="#006DB4"/>
<path fill-rule="evenodd" clip-rule="evenodd" d="M117.818 36.7774L117.396 37.5259L117.83 38.2767L116.854 37.4976L117.818 36.7774Z" fill="#006DB4"/>
<path fill-rule="evenodd" clip-rule="evenodd" d="M6.78975 30.0225H7.19417V26.4423H6.78993L6.78975 30.0225ZM11.4007 29.3119L9.14262 26.4423H8.76354V30.0225H9.1581V27.0872L11.4723 30.0225H11.7953V26.4423H11.4007V29.3119ZM13.6415 27.3376C13.6415 27.0098 13.9384 26.7544 14.4045 26.7544C14.7847 26.7551 15.1518 26.8931 15.4383 27.1431L15.6742 26.8317C15.3229 26.5353 14.8746 26.3787 14.4151 26.3918C13.7333 26.3918 13.2372 26.8009 13.2372 27.3731C13.2372 27.9667 13.6163 28.2336 14.4403 28.4115C15.1927 28.5701 15.3725 28.7597 15.3725 29.0971C15.3725 29.4605 15.0543 29.711 14.5728 29.711C14.0765 29.711 13.7189 29.5418 13.3446 29.2044L13.0932 29.5012C13.4885 29.8746 14.0135 30.0796 14.5573 30.0737C15.2701 30.0737 15.7826 29.6742 15.7826 29.0552C15.7826 28.5031 15.4132 28.2109 14.6144 28.0381C13.8252 27.8693 13.6415 27.6808 13.6415 27.3376ZM18.4062 26.8154H19.6102V26.4421H16.7931V26.8154H17.9962V30.0225H18.4062V26.8154ZM20.9223 30.0225H21.3275V26.4423H20.9223V30.0225ZM24.2539 26.8154H25.4569V26.4421H22.6401V26.8154H23.845V30.0225H24.2542L24.2539 26.8154ZM29.6636 26.4421H29.2585V28.5237C29.2585 29.3071 28.8387 29.7052 28.1783 29.7052C27.4917 29.7052 27.0826 29.27 27.0826 28.4986V26.4423H26.6787V28.5239C26.6787 29.5362 27.2821 30.0784 28.169 30.0784C29.0657 30.0784 29.6641 29.5362 29.6641 28.4939L29.6636 26.4421ZM32.4982 26.8154H33.7011V26.4421H30.8854V26.8154H32.0883V30.0225H32.4985L32.4982 26.8154ZM35.0141 30.0225H35.4199V26.4423H35.0144L35.0141 30.0225ZM40.4869 28.2271C40.4869 27.2361 39.7546 26.3818 38.6639 26.3818C37.5729 26.3818 36.8302 27.2461 36.8302 28.2382C36.8302 29.2301 37.5625 30.0847 38.6532 30.0847C39.7439 30.0847 40.4869 29.22 40.4869 28.2271ZM40.0671 28.2377C40.0671 29.0559 39.4831 29.7111 38.6639 29.7111C37.8447 29.7111 37.25 29.046 37.25 28.227C37.25 27.41 37.834 26.7545 38.6532 26.7545C39.4724 26.7545 40.0671 27.4198 40.0671 28.2377ZM44.4992 29.3119L42.2411 26.4423H41.8618V30.0225H42.2565V27.0872L44.57 30.0225H44.8921V26.4423H44.4986L44.4992 29.3119ZM52.8495 28.2271C52.8495 27.2361 52.1167 26.3818 51.0269 26.3818C49.9368 26.3818 49.1932 27.2461 49.1932 28.2382C49.1932 29.2301 49.9252 30.0847 51.015 30.0847C52.1068 30.0844 52.8495 29.22 52.8495 28.2271ZM52.4289 28.2377C52.4289 29.0559 51.8458 29.7111 51.0269 29.7111C50.2077 29.7111 49.6129 29.046 49.6129 28.227C49.6129 27.41 50.197 26.7545 51.015 26.7545C51.8351 26.7546 52.4289 27.4198 52.4289 28.2377ZM56.8 26.4423H54.2239V30.0225H54.6278V28.463H56.5696V28.0946H54.6278V26.8151H56.8V26.4423ZM63.5318 26.4423H60.94V30.0225H63.5572V29.6541H61.3442V28.4007H63.3006V28.0324H61.3442V26.8103H63.5322L63.5318 26.4423ZM67.9166 27.123V30.0225H68.3217V26.4423H67.9115L66.6056 28.3963L65.2994 26.4423H64.8904V30.0225H65.2849V27.1287L66.5907 29.0401H66.6122L67.9166 27.123ZM69.8913 30.0225H70.2956V26.4423H69.8913V30.0225ZM74.5023 29.312L72.2442 26.4424H71.8652V30.0225H72.2596V27.0872L74.5749 30.0225H74.897V26.4423H74.502L74.5023 29.312ZM79.0216 26.4424H76.4306V30.0225H79.0475V29.6542H76.8349V28.4008H78.7912V28.0325H76.8349V26.8104H79.0216V26.4424ZM83.0184 29.312L80.7594 26.4424H80.3814V30.0225H80.7758V27.0872L83.089 30.0225H83.4132V26.4423H83.0184V29.312ZM88.0194 29.4551L87.7524 29.1939C87.4091 29.5217 87.088 29.7112 86.5956 29.7112C85.8065 29.7112 85.207 29.0605 85.207 28.2271C85.207 27.3937 85.8017 26.7546 86.5956 26.7546C87.082 26.7546 87.4207 26.9596 87.7214 27.2458L87.9991 26.949C87.6401 26.6116 87.2514 26.3815 86.6006 26.3815C85.5457 26.3815 84.7872 27.2149 84.7872 28.2378C84.7872 29.2704 85.5514 30.0844 86.5861 30.0844C87.2359 30.0844 87.6449 29.8341 88.0194 29.4551ZM91.8364 26.4424H89.2455V30.0225H91.8623V29.6542H89.6497V28.4008H91.606V28.0325H89.6497V26.8104H91.8361L91.8364 26.4424ZM99.4173 28.2267C99.4173 27.2144 98.6398 26.4424 97.5131 26.4424H96.2682V30.0225H97.5131C98.6395 30.0225 99.4173 29.239 99.4173 28.2267ZM98.9985 28.2374C98.9985 29.035 98.4192 29.6489 97.5131 29.6489H96.6736V26.8155H97.5131C98.4189 26.8155 98.9985 27.4387 98.9985 28.2374ZM103.384 26.442H100.792V30.0222H103.409V29.6538H101.198V28.4004H103.153V28.032H101.198V26.81H103.384L103.384 26.442ZM107.335 26.442H104.743V30.0222H107.359V29.6538H105.148V28.4004H107.104V28.032H105.148V26.81H107.335V26.442ZM111.72 27.1226V30.0222H112.126V26.4423H111.715L110.409 28.3963L109.103 26.4423H108.694V30.0225H109.087V27.1287L110.393 29.0401H110.415L111.72 27.1226ZM116.25 26.442H113.658V30.0222H116.275V29.6538H114.064V28.4004H116.019V28.032H114.063V26.81H116.25L116.25 26.442ZM120.76 28.2263C120.76 27.214 119.98 26.442 118.855 26.442H117.609V30.0222H118.855C119.98 30.0225 120.759 29.2394 120.759 28.2271L120.76 28.2263ZM120.339 28.2369C120.339 29.0346 119.76 29.6485 118.855 29.6485H118.014V26.8155H118.855C119.76 26.8155 120.339 27.4391 120.339 28.2377L120.339 28.2369ZM125.769 26.8147H126.973V26.4415H124.155V26.8147H125.36V30.0216H125.769L125.769 26.8147ZM131.503 28.2262C131.503 27.2352 130.77 26.381 129.679 26.381C128.588 26.381 127.845 27.2457 127.845 28.2377C127.845 29.2297 128.578 30.0844 129.669 30.0844C130.76 30.0844 131.503 29.22 131.503 28.2271L131.503 28.2262ZM131.082 28.2368C131.082 29.055 130.498 29.7103 129.679 29.7103C128.86 29.7103 128.265 29.0451 128.265 28.2261C128.265 27.4092 128.85 26.7537 129.669 26.7537C130.488 26.7537 131.082 27.4198 131.082 28.2377L131.082 28.2368ZM136.74 26.4415H135.215V30.0216H136.806C137.59 30.0216 138.108 29.659 138.108 29.0393C138.108 28.5443 137.765 28.2987 137.34 28.1701C137.621 28.0473 137.908 27.8075 137.908 27.3367C137.908 26.7904 137.446 26.4423 136.739 26.4423L136.74 26.4415ZM136.674 28.0377H135.613V26.8068H136.705C137.216 26.8068 137.498 27.0359 137.498 27.3936C137.497 27.8181 137.16 28.0386 136.673 28.0386L136.674 28.0377ZM136.817 29.6591H135.613V28.3963H136.746C137.37 28.3963 137.698 28.6216 137.698 29.0151C137.698 29.4192 137.359 29.6599 136.817 29.6599L136.817 29.6591ZM142.022 26.4415H139.431V30.0216H142.048V29.6532H139.837V28.3999H141.792V28.0315H139.837V26.8094H142.022V26.4415Z" fill="#58595B"/>
<path fill-rule="evenodd" clip-rule="evenodd" d="M0.792895 24.0748V41.1673C0.512469 41.1673 0.0675796 41.0233 0.0675796 40.5748V24.6675C0.0672313 24.2189 0.512469 24.0748 0.792895 24.0748Z" fill="#58595B"/>
<path fill-rule="evenodd" clip-rule="evenodd" d="M148.045 24.0748V41.1673C148.325 41.1673 148.77 41.0233 148.77 40.5748V24.6675C148.77 24.2189 148.325 24.0748 148.045 24.0748Z" fill="#58595B"/>
</svg>
